<svg width="16" height="16" viewBox="0 0 16 16" fill="none" xmlns="http://www.w3.org/2000/svg">
<path fill-rule="evenodd" clip-rule="evenodd" d="M4.66671 1.33334C3.78265 1.33334 2.93481 1.68453 2.30968 2.30965C1.68456 2.93478 1.33337 3.78262 1.33337 4.66668V11.3333C1.33337 12.2174 1.68456 13.0652 2.30968 13.6904C2.93481 14.3155 3.78265 14.6667 4.66671 14.6667H11.3334C12.2174 14.6667 13.0653 14.3155 13.6904 13.6904C14.3155 13.0652 14.6667 12.2174 14.6667 11.3333V4.66668C14.6667 3.78262 14.3155 2.93478 13.6904 2.30965C13.0653 1.68453 12.2174 1.33334 11.3334 1.33334H4.66671ZM10.4867 7.12268C10.5466 7.05877 10.5933 6.98369 10.6242 6.90173C10.655 6.81977 10.6695 6.73253 10.6666 6.64499C10.6638 6.55746 10.6437 6.47134 10.6076 6.39156C10.5714 6.31178 10.52 6.23989 10.456 6.18001C10.3921 6.12013 10.3171 6.07342 10.2351 6.04255C10.1531 6.01168 10.0659 5.99726 9.97836 6.00011C9.89082 6.00296 9.8047 6.02302 9.72492 6.05915C9.64514 6.09528 9.57326 6.14677 9.51337 6.21068L7.45804 8.40401L6.44271 7.50201C6.30968 7.39142 6.13887 7.33687 5.96637 7.34989C5.79387 7.3629 5.63318 7.44246 5.51826 7.57176C5.40333 7.70105 5.34316 7.86996 5.35046 8.0428C5.35776 8.21563 5.43195 8.37887 5.55737 8.49801L7.05737 9.83134C7.18717 9.94664 7.35681 10.0068 7.53024 9.99891C7.70366 9.99106 7.86719 9.91588 7.98604 9.78934L10.486 7.12268H10.4867Z" fill="#8601EE"/>
</svg>
