<svg width="16" height="16" viewBox="0 0 16 16" fill="none" xmlns="http://www.w3.org/2000/svg">
<path d="M5.33325 2.66668V10.6667C5.33325 11.0203 5.47373 11.3594 5.72378 11.6095C5.97382 11.8595 6.31296 12 6.66659 12H11.9999C12.3535 12 12.6927 11.8595 12.9427 11.6095C13.1928 11.3594 13.3333 11.0203 13.3333 10.6667V4.82801C13.3332 4.65038 13.2977 4.47455 13.2288 4.31084C13.1599 4.14713 13.0589 3.99884 12.9319 3.87468L10.7219 1.71334C10.4728 1.46978 10.1383 1.33339 9.78992 1.33334H6.66659C6.31296 1.33334 5.97382 1.47382 5.72378 1.72387C5.47373 1.97392 5.33325 2.31305 5.33325 2.66668V2.66668Z" stroke="#AEAEAE" stroke-linecap="round" stroke-linejoin="round"/>
<path d="M10.6666 12V13.3334C10.6666 13.687 10.5262 14.0261 10.2761 14.2762C10.0261 14.5262 9.68691 14.6667 9.33329 14.6667H3.99996C3.64634 14.6667 3.3072 14.5262 3.05715 14.2762C2.8071 14.0261 2.66663 13.687 2.66663 13.3334V6.00002C2.66663 5.6464 2.8071 5.30726 3.05715 5.05721C3.3072 4.80716 3.64634 4.66669 3.99996 4.66669H5.33329" stroke="#AEAEAE" stroke-linecap="round" stroke-linejoin="round"/>
</svg>
