<svg width="32" height="33" viewBox="0 0 32 33" fill="none" xmlns="http://www.w3.org/2000/svg">
<g filter="url(#filter0_d_1_260)">
<path d="M14.6841 0.410062L26.1281 0.410039C29.8698 0.410032 32.2858 4.3692 30.5746 7.69672L19.431 29.3654C17.5155 33.0902 12.1436 32.95 10.4249 29.1305L0.674714 7.46181C-0.814087 4.15312 1.60614 0.410138 5.23435 0.410118L14.6841 0.410062Z" fill="#FF5C00"/>
<path d="M14.6841 1.41006L26.1281 1.41004C29.1215 1.41003 31.0543 4.57737 29.6853 7.23938L18.5417 28.9081C17.0093 31.8879 12.7118 31.7758 11.3368 28.7201L1.58665 7.05147C0.395607 4.40452 2.33178 1.41013 5.23436 1.41012L14.6841 1.41006Z" stroke="white" stroke-width="2"/>
</g>
<defs>
<filter id="filter0_d_1_260" x="0.228638" y="0.410034" width="30.9061" height="31.6688" filterUnits="userSpaceOnUse" color-interpolation-filters="sRGB">
<feFlood flood-opacity="0" result="BackgroundImageFix"/>
<feColorMatrix in="SourceAlpha" type="matrix" values="0 0 0 0 0 0 0 0 0 0 0 0 0 0 0 0 0 0 127 0" result="hardAlpha"/>
<feOffset/>
<feComposite in2="hardAlpha" operator="out"/>
<feColorMatrix type="matrix" values="0 0 0 0 0 0 0 0 0 0 0 0 0 0 0 0 0 0 0.1 0"/>
<feBlend mode="normal" in2="BackgroundImageFix" result="effect1_dropShadow_1_260"/>
<feBlend mode="normal" in="SourceGraphic" in2="effect1_dropShadow_1_260" result="shape"/>
</filter>
</defs>
</svg>
